<svg xmlns="http://www.w3.org/2000/svg" width="1480" height="720"><rect width="1480" height="720" x="0" y="0" fill="#FFFFFF" id="background"/><g id="viz"><g transform="translate(0,0)"><g id="pie" transform="translate(106.66666666666667,125)"><path fill="#f071a6" stroke="#FFFFFF" d="M6.531449595452551e-15,-106.66666666666667A106.66666666666667,106.66666666666667,0,0,1,105.24933049507082,-17.33078786775528L79.59480618689732,-13.10640832498993A80.66666666666667,80.66666666666667,0,0,0,4.9394087565609914e-15,-80.66666666666667Z"/><path fill="#4fb8f0" stroke="#FFFFFF" d="M105.24933049507082,-17.33078786775528A106.66666666666667,106.66666666666667,0,1,1,-1.9594348786357652e-14,-106.66666666666667L-1.4818226269682975e-14,-80.66666666666667A80.66666666666667,80.66666666666667,0,1,0,79.59480618689732,-13.10640832498993Z"/><g id="labels"><g transform="translate(60.61340235219248,-71.41050272708961)"><text text-anchor="middle" style="font-family: Arial, sans-serif; font-size: 10px; fill: black; font-weight: normal;">69</text></g><g transform="translate(-60.61340235219246,71.41050272708964)"><text text-anchor="middle" style="font-family: Arial, sans-serif; font-size: 10px; fill: black; font-weight: normal;">239</text></g></g></g><text y="14.333333333333329" x="106.66666666666667" style="font-family: Arial, sans-serif; font-size: 12px; fill: black; font-weight: bold; dominant-baseline: auto; text-anchor: middle;">Hele landet</text></g><g transform="translate(213.33333333333331,0)"><g id="pie" transform="translate(106.66666666666667,125)"><path fill="#f071a6" stroke="#FFFFFF" d="M3.3905743139194536e-15,-55.37228066541477A55.37228066541477,55.37228066541477,0,0,1,52.531128807183215,17.509139679966925L27.865188871647188,9.2877403406495A29.37228066541477,29.37228066541477,0,0,0,1.7985334750278943e-15,-29.37228066541477Z"/><path fill="#4fb8f0" stroke="#FFFFFF" d="M52.531128807183215,17.509139679966925A55.37228066541477,55.37228066541477,0,1,1,-1.017172294175836e-14,-55.37228066541477L-5.395600425083683e-15,-29.37228066541477A29.37228066541477,29.37228066541477,0,1,0,27.865188871647188,9.2877403406495Z"/><g id="labels"><g transform="translate(34.37391910580015,-24.7758724184758)"><text text-anchor="middle" style="font-family: Arial, sans-serif; font-size: 10px; fill: black; font-weight: normal;">25</text></g><g transform="translate(-34.37391910580014,24.77587241847581)"><text text-anchor="middle" style="font-family: Arial, sans-serif; font-size: 10px; fill: black; font-weight: normal;">58</text></g></g></g><text y="65.62771933458524" x="106.66666666666667" style="font-family: Arial, sans-serif; font-size: 12px; fill: black; font-weight: bold; dominant-baseline: auto; text-anchor: middle;">Region Hovedstaden</text></g><g transform="translate(426.66666666666663,0)"><g id="pie" transform="translate(106.66666666666667,125)"><path fill="#f071a6" stroke="#FFFFFF" d="M3.135908597322038e-15,-51.21327389260936A51.21327389260936,51.21327389260936,0,0,1,44.72483739274775,-24.949716290805707L22.018892550208538,-12.283222347825001A25.213273892609358,25.213273892609358,0,0,0,1.5438677584304788e-15,-25.213273892609358Z"/><path fill="#4fb8f0" stroke="#FFFFFF" d="M44.72483739274775,-24.949716290805707A51.21327389260936,51.21327389260936,0,1,1,-9.407725791966113e-15,-51.21327389260936L-4.631603275291436e-15,-25.213273892609358A25.213273892609358,25.213273892609358,0,1,0,22.018892550208538,-12.283222347825001Z"/><g id="labels"><g transform="translate(19.350168740597894,-32.95186294129618)"><text text-anchor="middle" style="font-family: Arial, sans-serif; font-size: 10px; fill: black; font-weight: normal;">12</text></g><g transform="translate(-19.350168740597894,32.95186294129618)"><text text-anchor="middle" style="font-family: Arial, sans-serif; font-size: 10px; fill: black; font-weight: normal;">59</text></g></g></g><text y="69.78672610739065" x="106.66666666666667" style="font-family: Arial, sans-serif; font-size: 12px; fill: black; font-weight: bold; dominant-baseline: auto; text-anchor: middle;">Region Midtjylland</text></g><g transform="translate(640,0)"><g id="pie" transform="translate(106.66666666666667,125)"><path fill="#f071a6" stroke="#FFFFFF" d="M2.7600412075707856e-15,-45.07489358552088A45.07489358552088,45.07489358552088,0,0,1,44.1771171462644,-8.951444151155911L18.694970557862174,-3.7880920183665294A19.074893585520883,19.074893585520883,0,0,0,1.1680003686792263e-15,-19.074893585520883Z"/><path fill="#4fb8f0" stroke="#FFFFFF" d="M44.1771171462644,-8.951444151155911A45.07489358552088,45.07489358552088,0,1,1,-4.83146713756516e-14,-45.07489358552088L-2.0445909946773673e-14,-19.074893585520883A19.074893585520883,19.074893585520883,0,1,0,18.694970557862174,-3.7880920183665294Z"/><g id="labels"><g transform="translate(20.303807094228972,-24.830509781372307)"><text text-anchor="middle" style="font-family: Arial, sans-serif; font-size: 10px; fill: black; font-weight: normal;">12</text></g><g transform="translate(-20.303807094228954,24.830509781372324)"><text text-anchor="middle" style="font-family: Arial, sans-serif; font-size: 10px; fill: black; font-weight: normal;">43</text></g></g></g><text y="75.92510641447912" x="106.66666666666667" style="font-family: Arial, sans-serif; font-size: 12px; fill: black; font-weight: bold; dominant-baseline: auto; text-anchor: middle;">Landsdel Nordjylland</text></g><g transform="translate(853.3333333333333,0)"><g id="pie" transform="translate(106.66666666666667,125)"><path fill="#f071a6" stroke="#FFFFFF" d="M2.7600412075707856e-15,-45.07489358552088A45.07489358552088,45.07489358552088,0,0,1,44.1771171462644,-8.951444151155911L18.694970557862174,-3.7880920183665294A19.074893585520883,19.074893585520883,0,0,0,1.1680003686792263e-15,-19.074893585520883Z"/><path fill="#4fb8f0" stroke="#FFFFFF" d="M44.1771171462644,-8.951444151155911A45.07489358552088,45.07489358552088,0,1,1,-4.83146713756516e-14,-45.07489358552088L-2.0445909946773673e-14,-19.074893585520883A19.074893585520883,19.074893585520883,0,1,0,18.694970557862174,-3.7880920183665294Z"/><g id="labels"><g transform="translate(20.303807094228972,-24.830509781372307)"><text text-anchor="middle" style="font-family: Arial, sans-serif; font-size: 10px; fill: black; font-weight: normal;">12</text></g><g transform="translate(-20.303807094228954,24.830509781372324)"><text text-anchor="middle" style="font-family: Arial, sans-serif; font-size: 10px; fill: black; font-weight: normal;">43</text></g></g></g><text y="75.92510641447912" x="106.66666666666667" style="font-family: Arial, sans-serif; font-size: 12px; fill: black; font-weight: bold; dominant-baseline: auto; text-anchor: middle;">Region Nordjylland</text></g><g transform="translate(1066.6666666666667,0)"><g id="pie" transform="translate(106.66666666666667,125)"><path fill="#f071a6" stroke="#FFFFFF" d="M2.65778171633252e-15,-43.40486935797278A43.40486935797278,43.40486935797278,0,0,1,29.241671399514203,-32.076585506339626L11.725584664703714,-12.86235365860249A17.40486935797278,17.40486935797278,0,0,0,1.0657408774409605e-15,-17.40486935797278Z"/><path fill="#4fb8f0" stroke="#FFFFFF" d="M29.241671399514203,-32.076585506339626A43.40486935797278,43.40486935797278,0,1,1,-7.973345148997558e-15,-43.40486935797278L-3.1972226323228816e-15,-17.40486935797278A17.40486935797278,17.40486935797278,0,1,0,11.725584664703714,-12.86235365860249Z"/><g id="labels"><g transform="translate(10.9835056670768,-28.35169631497706)"><text text-anchor="middle" style="font-family: Arial, sans-serif; font-size: 10px; fill: black; font-weight: normal;">6</text></g><g transform="translate(-10.983505667076791,28.351696314977065)"><text text-anchor="middle" style="font-family: Arial, sans-serif; font-size: 10px; fill: black; font-weight: normal;">45</text></g></g></g><text y="77.59513064202721" x="106.66666666666667" style="font-family: Arial, sans-serif; font-size: 12px; fill: black; font-weight: bold; dominant-baseline: auto; text-anchor: middle;">Region Syddanmark</text></g><g transform="translate(0,240)"><g id="pie" transform="translate(106.66666666666667,125)"><path fill="#f071a6" stroke="#FFFFFF" d="M2.578426999123382e-15,-42.10890847742522A42.10890847742522,42.10890847742522,0,0,1,40.67408221518771,10.898587482436632L15.56001073167193,4.169292309771095A16.108908477425217,16.108908477425217,0,0,0,9.863861602318227e-16,-16.108908477425217Z"/><path fill="#4fb8f0" stroke="#FFFFFF" d="M40.67408221518771,10.898587482436632A42.10890847742522,42.10890847742522,0,1,1,-4.513550478414688e-14,-42.10890847742522L-1.7266743355268947e-14,-16.108908477425217A16.108908477425217,16.108908477425217,0,1,0,15.56001073167193,4.169292309771095Z"/><g id="labels"><g transform="translate(23.09364977279715,-17.720380721601437)"><text text-anchor="middle" style="font-family: Arial, sans-serif; font-size: 10px; fill: black; font-weight: normal;">14</text></g><g transform="translate(-23.093649772797146,17.720380721601444)"><text text-anchor="middle" style="font-family: Arial, sans-serif; font-size: 10px; fill: black; font-weight: normal;">34</text></g></g></g><text y="78.89109152257478" x="106.66666666666667" style="font-family: Arial, sans-serif; font-size: 12px; fill: black; font-weight: bold; dominant-baseline: auto; text-anchor: middle;">Region Sjælland</text></g><g transform="translate(213.33333333333331,240)"><g id="pie" transform="translate(106.66666666666667,125)"><path fill="#f071a6" stroke="#FFFFFF" d="M2.5514270195038044e-15,-41.6679653477265A41.6679653477265,41.6679653477265,0,0,1,27.950234891225236,30.90313423820749L10.509831907605426,11.620179491360593A15.6679653477265,15.6679653477265,0,0,0,9.593861806122453e-16,-15.6679653477265Z"/><path fill="#4fb8f0" stroke="#FFFFFF" d="M27.950234891225236,30.90313423820749A41.6679653477265,41.6679653477265,0,1,1,-7.654281058511413e-15,-41.6679653477265L-2.8781585418367357e-15,-15.6679653477265A15.6679653477265,15.6679653477265,0,1,0,10.509831907605426,11.620179491360593Z"/><g id="labels"><g transform="translate(26.752389420510905,-10.303489577409373)"><text text-anchor="middle" style="font-family: Arial, sans-serif; font-size: 10px; fill: black; font-weight: normal;">18</text></g><g transform="translate(-26.7523894205109,10.303489577409389)"><text text-anchor="middle" style="font-family: Arial, sans-serif; font-size: 10px; fill: black; font-weight: normal;">29</text></g></g></g><text y="79.3320346522735" x="106.66666666666667" style="font-family: Arial, sans-serif; font-size: 12px; fill: black; font-weight: bold; dominant-baseline: auto; text-anchor: middle;">Landsdel Byen København</text></g><g transform="translate(426.66666666666663,240)"><g id="pie" transform="translate(106.66666666666667,125)"><path fill="#f071a6" stroke="#FFFFFF" d="M2.3830115635741293e-15,-38.91753222616145A38.91753222616145,38.91753222616145,0,0,1,35.512388900715,15.919941869827568L11.7872948723247,5.284157303372729A12.917532226161448,12.917532226161448,0,0,0,7.9097072468257e-16,-12.917532226161448Z"/><path fill="#4fb8f0" stroke="#FFFFFF" d="M35.512388900715,15.919941869827568A38.91753222616145,38.91753222616145,0,1,1,2.7416677580538382e-14,-38.91753222616145L9.100161185009804e-15,-12.917532226161448A12.917532226161448,12.917532226161448,0,1,0,11.7872948723247,5.284157303372729Z"/><g id="labels"><g transform="translate(21.75428048130055,-14.087929494252274)"><text text-anchor="middle" style="font-family: Arial, sans-serif; font-size: 10px; fill: black; font-weight: normal;">13</text></g><g transform="translate(-21.754280481300555,14.087929494252265)"><text text-anchor="middle" style="font-family: Arial, sans-serif; font-size: 10px; fill: black; font-weight: normal;">28</text></g></g></g><text y="82.08246777383854" x="106.66666666666667" style="font-family: Arial, sans-serif; font-size: 12px; fill: black; font-weight: bold; dominant-baseline: auto; text-anchor: middle;">Landsdel Vest- og Sydsjælland</text></g><g transform="translate(640,240)"><g id="pie" transform="translate(106.66666666666667,125)"><path fill="#f071a6" stroke="#FFFFFF" d="M2.353771050500382e-15,-38.43999840834385A38.43999840834385,38.43999840834385,0,0,1,37.96673824041687,-6.013340587156596L12.286841384943289,-1.9460444961105932A12.439998408343847,12.439998408343847,0,0,0,7.617302116088231e-16,-12.439998408343847Z"/><path fill="#4fb8f0" stroke="#FFFFFF" d="M37.96673824041687,-6.013340587156596A38.43999840834385,38.43999840834385,0,1,1,-7.061313151501146e-15,-38.43999840834385L-2.285190634826469e-15,-12.439998408343847A12.439998408343847,12.439998408343847,0,1,0,12.286841384943289,-1.9460444961105932Z"/><g id="labels"><g transform="translate(16.521957315821894,-19.34472655455995)"><text text-anchor="middle" style="font-family: Arial, sans-serif; font-size: 10px; fill: black; font-weight: normal;">9</text></g><g transform="translate(-16.521957315821886,19.344726554559955)"><text text-anchor="middle" style="font-family: Arial, sans-serif; font-size: 10px; fill: black; font-weight: normal;">31</text></g></g></g><text y="82.56000159165615" x="106.66666666666667" style="font-family: Arial, sans-serif; font-size: 12px; fill: black; font-weight: bold; dominant-baseline: auto; text-anchor: middle;">Landsdel Østjylland</text></g><g transform="translate(853.3333333333333,240)"><g id="pie" transform="translate(106.66666666666667,125)"><path fill="#f071a6" stroke="#FFFFFF" d="M2.072120791021748e-15,-33.84030060690869A33.84030060690869,33.84030060690869,0,0,1,19.331888125979948,-27.77488157761506L4.478914533515346,-6.435032106225874A7.840300606908691,7.840300606908691,0,0,0,4.80079952130189e-16,-7.840300606908691Z"/><path fill="#4fb8f0" stroke="#FFFFFF" d="M19.331888125979948,-27.77488157761506A33.84030060690869,33.84030060690869,0,1,1,-6.216362373065244e-15,-33.84030060690869L-1.4402398563905669e-15,-7.840300606908691A7.840300606908691,7.840300606908691,0,1,0,4.478914533515346,-6.435032106225874Z"/><g id="labels"><g transform="translate(6.238817473387752,-19.884548924229346)"><text text-anchor="middle" style="font-family: Arial, sans-serif; font-size: 10px; fill: black; font-weight: normal;">3</text></g><g transform="translate(-6.23881747338775,19.884548924229346)"><text text-anchor="middle" style="font-family: Arial, sans-serif; font-size: 10px; fill: black; font-weight: normal;">28</text></g></g></g><text y="87.1596993930913" x="106.66666666666667" style="font-family: Arial, sans-serif; font-size: 12px; fill: black; font-weight: bold; dominant-baseline: auto; text-anchor: middle;">Landsdel Vestjylland</text></g><g transform="translate(1066.6666666666667,240)"><g id="pie" transform="translate(106.66666666666667,125)"><path fill="#f071a6" stroke="#FFFFFF" d="M1.9693061495667887e-15,-32.16121008829479A32.16121008829479,32.16121008829479,0,0,1,28.976249043622815,-13.954226087654673L5.551058478159918,-2.6732488705981625A6.161210088294787,6.161210088294787,0,0,0,3.772653106752296e-16,-6.161210088294787Z"/><path fill="#4fb8f0" stroke="#FFFFFF" d="M28.976249043622815,-13.954226087654673A32.16121008829479,32.16121008829479,0,1,1,-5.907918448700366e-15,-32.16121008829479L-1.1317959320256888e-15,-6.161210088294787A6.161210088294787,6.161210088294787,0,1,0,5.551058478159918,-2.6732488705981625Z"/><g id="labels"><g transform="translate(10.194378391822093,-16.224260268256323)"><text text-anchor="middle" style="font-family: Arial, sans-serif; font-size: 10px; fill: black; font-weight: normal;">5</text></g><g transform="translate(-10.19437839182209,16.224260268256327)"><text text-anchor="middle" style="font-family: Arial, sans-serif; font-size: 10px; fill: black; font-weight: normal;">23</text></g></g></g><text y="88.83878991170522" x="106.66666666666667" style="font-family: Arial, sans-serif; font-size: 12px; fill: black; font-weight: bold; dominant-baseline: auto; text-anchor: middle;">Landsdel Sydjylland</text></g><g transform="translate(0,480)"><g id="pie" transform="translate(106.66666666666667,125)"><path fill="#f071a6" stroke="#FFFFFF" d="M1.7848352699758767e-15,-29.14857200000112A29.14857200000112,29.14857200000112,0,0,1,7.864190609438346,-28.067663880303098L0.8494745593557164,-3.0318144092603143A3.1485720000011206,3.1485720000011206,0,0,0,1.9279443108431763e-16,-3.1485720000011206Z"/><path fill="#4fb8f0" stroke="#FFFFFF" d="M7.864190609438346,-28.067663880303098A29.14857200000112,29.14857200000112,0,1,1,-5.35450580992763e-15,-29.14857200000112L-5.783832932529529e-16,-3.1485720000011206A3.1485720000011206,3.1485720000011206,0,1,0,0.8494745593557164,-3.0318144092603143Z"/><g id="labels"><g transform="translate(2.198896936929626,-15.998163328956911)"><text text-anchor="middle" style="font-family: Arial, sans-serif; font-size: 10px; fill: black; font-weight: normal;">1</text></g><g transform="translate(-2.198896936929624,15.998163328956911)"><text text-anchor="middle" style="font-family: Arial, sans-serif; font-size: 10px; fill: black; font-weight: normal;">22</text></g></g></g><text y="91.85142799999888" x="106.66666666666667" style="font-family: Arial, sans-serif; font-size: 12px; fill: black; font-weight: bold; dominant-baseline: auto; text-anchor: middle;">Landsdel Fyn</text></g><g transform="translate(213.33333333333331,480)"><g id="pie" transform="translate(106.66666666666667,125)"><path fill="#f071a6" stroke="#FFFFFF" d="M1.7848352699758767e-15,-29.14857200000112A29.14857200000112,29.14857200000112,0,0,1,25.880586216338354,-13.410238876989721L2.7955705378765985,-1.4485478959797646A3.1485720000011206,3.1485720000011206,0,0,0,1.9279443108431763e-16,-3.1485720000011206Z"/><path fill="#4fb8f0" stroke="#FFFFFF" d="M25.880586216338354,-13.410238876989721A29.14857200000112,29.14857200000112,0,1,1,-5.35450580992763e-15,-29.14857200000112L-5.783832932529529e-16,-3.1485720000011206A3.1485720000011206,3.1485720000011206,0,1,0,2.7955705378765985,-1.4485478959797646Z"/><g id="labels"><g transform="translate(8.390538827192186,-13.797653272517055)"><text text-anchor="middle" style="font-family: Arial, sans-serif; font-size: 10px; fill: black; font-weight: normal;">4</text></g><g transform="translate(-8.390538827192179,13.797653272517058)"><text text-anchor="middle" style="font-family: Arial, sans-serif; font-size: 10px; fill: black; font-weight: normal;">19</text></g></g></g><text y="91.85142799999888" x="106.66666666666667" style="font-family: Arial, sans-serif; font-size: 12px; fill: black; font-weight: bold; dominant-baseline: auto; text-anchor: middle;">Landsdel Nordsjælland</text></g><g transform="translate(426.66666666666663,480)"><g id="pie" transform="translate(106.66666666666667,125)"><path fill="#f071a6" stroke="#FFFFFF" d="M1.289213499561691e-15,-21.05445423871261A21.05445423871261,21.05445423871261,0,0,1,21.05445423871261,0L0,0Z"/><path fill="#4fb8f0" stroke="#FFFFFF" d="M21.05445423871261,0A21.05445423871261,21.05445423871261,0,1,1,-3.867640498685073e-15,-21.05445423871261L0,0Z"/><g id="labels"><g transform="translate(7.443873683187768,-7.443873683187767)"><text text-anchor="middle" style="font-family: Arial, sans-serif; font-size: 10px; fill: black; font-weight: normal;">3</text></g><g transform="translate(-7.443873683187767,7.443873683187768)"><text text-anchor="middle" style="font-family: Arial, sans-serif; font-size: 10px; fill: black; font-weight: normal;">9</text></g></g></g><text y="99.94554576128739" x="106.66666666666667" style="font-family: Arial, sans-serif; font-size: 12px; fill: black; font-weight: bold; dominant-baseline: auto; text-anchor: middle;">Landsdel Københavns omegn</text></g><g transform="translate(640,480)"><g id="pie" transform="translate(106.66666666666667,125)"><path fill="#f071a6" stroke="#FFFFFF" d="M9.846530747833944e-16,-16.080605044147394A16.080605044147394,16.080605044147394,0,0,1,12.572323280648634,-10.026093252744008L0,0Z"/><path fill="#4fb8f0" stroke="#FFFFFF" d="M12.572323280648634,-10.026093252744008A16.080605044147394,16.080605044147394,0,1,1,-2.953959224350183e-15,-16.080605044147394L0,0Z"/><g id="labels"><g transform="translate(3.4885565219136687,-7.244062260905704)"><text text-anchor="middle" style="font-family: Arial, sans-serif; font-size: 10px; fill: black; font-weight: normal;">1</text></g><g transform="translate(-3.488556521913668,7.244062260905704)"><text text-anchor="middle" style="font-family: Arial, sans-serif; font-size: 10px; fill: black; font-weight: normal;">6</text></g></g></g><text y="104.91939495585261" x="106.66666666666667" style="font-family: Arial, sans-serif; font-size: 12px; fill: black; font-weight: bold; dominant-baseline: auto; text-anchor: middle;">Landsdel Østsjælland</text></g><g transform="translate(853.3333333333333,480)"><g id="pie" transform="translate(106.66666666666667,125)"><path fill="#f071a6" stroke="#FFFFFF" d="M3.7216388050742083e-16,-6.0778974111806905L0,0Z"/><path fill="#4fb8f0" stroke="#FFFFFF" d="M3.7216388050742083e-16,-6.0778974111806905A6.0778974111806905,6.0778974111806905,0,1,1,-3.7216388050742083e-16,6.0778974111806905A6.0778974111806905,6.0778974111806905,0,1,1,3.7216388050742083e-16,-6.0778974111806905Z"/><g id="labels"><g transform="translate(1.8608194025371042e-16,-3.0389487055903452)"><text text-anchor="middle" style="font-family: Arial, sans-serif; font-size: 10px; fill: black; font-weight: normal;">0</text></g><g transform="translate(1.8608194025371042e-16,3.0389487055903452)"><text text-anchor="middle" style="font-family: Arial, sans-serif; font-size: 10px; fill: black; font-weight: normal;">1</text></g></g></g><text y="114.92210258881931" x="106.66666666666667" style="font-family: Arial, sans-serif; font-size: 12px; fill: black; font-weight: bold; dominant-baseline: auto; text-anchor: middle;">Landsdel Bornholm</text></g></g><g id="legend" transform="translate(1280,10)"><g transform="translate(5,0)"><g class="legendColor" transform="translate(0,0)"><g class="legendCells" transform="translate(0,16.5)"><g class="cell" transform="translate(0, 0)"><rect class="swatch" height="15" width="15" style="fill: rgb(240, 113, 166);"/><text class="label" transform="translate( 20, 12.5)" font-family="&quot;Arial&quot;, sans-serif" font-size="10px"><tspan x="0" dy="0em">kvinder</tspan></text></g><g class="cell" transform="translate(0, 21.5)"><rect class="swatch" height="15" width="15" style="fill: rgb(79, 184, 240);"/><text class="label" transform="translate( 20, 12.5)" font-family="&quot;Arial&quot;, sans-serif" font-size="10px"><tspan x="0" dy="0em">mænd</tspan></text></g></g><text class="legendTitle" font-family="&quot;Arial&quot;, sans-serif" font-size="12px" font-weight="bold"><tspan x="0" dy="0em">Arcs colors</tspan></text></g></g></g></svg>